# xmcd
#
# Track frame offsets:
#	150
#	18927
#	30318
#	41281
#	56099
#	66231
#	83669
#	95904
#	107689
#	124774
#	142736
#	154207
#	169222
#	180466
#	192615
#	206949
#
# Disc length: 3030 seconds
#
# Revision: 1
# Processed by: cddbd v1.4PL0 Copyright (c) Steve Scherf et al.
# Submitted via: audiograbber 1.80
#
DISCID=da0bd410
DTITLE=Heidi Hauge - Country Dance
DYEAR=1900
DGENRE=
TTITLE0=Save The Last Dance For Me
TTITLE1=Diggy Liggy Lo
TTITLE2=Lead Me On
TTITLE3=A Good Year For The Roses
TTITLE4=I Really Never Knew You
TTITLE5=Seven Spanish Angels
TTITLE6=When The Rodeo Is Over
TTITLE7=As Soon As I Hang Up The Phone
TTITLE8=Dancing The Night Away
TTITLE9=All Those Years
TTITLE10=It's A Cowboy Lovin' Night
TTITLE11=Harper Valley PTA
TTITLE12=All That's Keeping Me Alive
TTITLE13=He Thinks I Still Care
TTITLE14=Coat Of Many Colour
TTITLE15=Skaidi
EXTD=
EXTT0=
EXTT1=
EXTT2=
EXTT3=
EXTT4=
EXTT5=
EXTT6=
EXTT7=
EXTT8=
EXTT9=
EXTT10=
EXTT11=
EXTT12=
EXTT13=
EXTT14=
EXTT15=
PLAYORDER=
